<svg version="1.1" id="Layer_1" xmlns="http://www.w3.org/2000/svg" xmlns:xlink="http://www.w3.org/1999/xlink" x="0px" y="0px"
	 width="100%" viewBox="0 0 170 154" enable-background="new 0 0 170 154" xml:space="preserve">
<path fill="#020304" opacity="1.000000" stroke="none" 
	d="
M171.000000,65.000000 
	C171.000000,95.333336 171.000000,125.166664 171.000000,155.000000 
	C114.333336,155.000000 57.666668,155.000000 1.000000,155.000000 
	C1.000000,103.666664 1.000000,52.333332 1.000000,1.000000 
	C57.666668,1.000000 114.333336,1.000000 171.000000,1.000000 
	C171.000000,22.166666 171.000000,43.333332 171.000000,65.000000 
M146.669785,77.263794 
	C149.583755,77.803070 152.497742,78.342339 155.411713,78.881615 
	C155.552460,78.194054 155.693192,77.506493 155.833939,76.818932 
	C152.557266,76.210548 149.280594,75.602165 145.215866,74.841293 
	C121.273270,70.265739 97.253197,70.344376 73.288498,74.302528 
	C60.459881,76.421387 47.812317,79.673141 36.889240,87.212921 
	C28.297825,93.143257 28.741943,101.104462 37.505623,106.749008 
	C39.737221,108.186340 41.059837,108.176895 42.827137,105.881622 
	C53.037571,92.620850 67.485184,86.361259 82.994202,82.989594 
	C82.992310,83.310898 82.990410,83.632210 82.382477,84.310959 
	C77.497742,87.100365 72.555626,89.794739 67.741516,92.701134 
	C60.260525,97.217606 53.416534,102.518791 48.910847,110.204590 
	C44.194824,118.249153 39.625912,126.382751 35.155266,134.566254 
	C34.154163,136.398758 33.620792,138.562622 33.240875,140.641342 
	C32.630592,143.980484 34.034618,145.350815 37.626400,145.339035 
	C69.940002,145.232986 102.254158,145.246536 134.567932,145.322739 
	C137.732941,145.330200 138.994308,144.346405 139.043106,141.049164 
	C139.227936,128.561646 139.727966,116.078545 139.872513,103.591034 
	C139.890335,102.051224 138.832245,99.580566 137.658630,99.125694 
	C134.698624,97.978455 133.944901,100.531746 133.082047,102.859100 
	C130.886658,108.780708 128.876587,114.830803 126.012978,120.430946 
	C121.673721,128.916931 115.064064,135.715988 105.378891,137.091049 
	C94.307114,138.662979 83.015862,138.689026 70.556084,139.465561 
	C72.037735,136.542542 72.710434,135.097580 73.483414,133.708405 
	C83.032822,116.546631 92.596848,99.392982 102.576569,81.751747 
	C101.962463,80.641029 101.348351,79.530312 100.817291,78.569786 
	C115.926926,75.736809 130.992783,75.033028 146.669785,77.263794 
M162.479034,72.507172 
	C158.813400,70.729729 155.238434,68.726234 151.466660,67.213417 
	C133.766342,60.113956 115.135910,57.571568 96.270630,56.578686 
	C71.987061,55.300632 47.961979,56.802681 24.725359,64.773521 
	C17.714287,67.178520 11.202490,70.529137 6.582745,76.614067 
	C2.869742,81.504669 2.557540,87.149261 5.510296,92.028397 
	C9.558997,98.718475 23.016506,106.664131 31.090475,107.131592 
	C25.338467,98.872643 24.671797,94.520302 29.026890,89.103516 
	C31.073376,86.558144 33.572800,83.915810 36.452785,82.589088 
	C44.730110,78.775970 53.306160,75.611313 62.319630,72.388824 
	C63.039433,72.144630 63.759232,71.900436 65.290718,71.509834 
	C67.451752,71.034409 69.612778,70.558975 72.307045,70.323112 
	C73.032555,70.118446 73.758057,69.913780 75.194420,69.651924 
	C76.126495,69.464912 77.058578,69.277901 78.342384,69.370979 
	C78.889984,69.209595 79.437576,69.048210 80.743057,68.878120 
	C82.491402,68.623985 84.239746,68.369850 86.509796,68.402992 
	C87.665527,68.210121 88.821259,68.017250 90.881714,67.831490 
	C101.925652,67.837418 112.969589,67.843346 124.514282,68.174644 
	C125.679420,68.138535 126.844566,68.102432 128.778442,68.199097 
	C130.857941,68.401466 132.937454,68.603828 135.312500,69.144028 
	C135.876266,69.105072 136.440048,69.066116 137.709702,69.202942 
	C139.143875,69.423042 140.578049,69.643143 142.496872,70.228783 
	C143.083420,70.216393 143.669968,70.204002 144.924240,70.436424 
	C145.621582,70.563400 146.318924,70.690369 147.306564,71.168465 
	C147.876678,71.153030 148.446808,71.137589 149.727921,71.369293 
	C153.672318,72.452461 157.616699,73.535629 162.009109,75.102371 
	C163.748779,75.691299 165.488434,76.280228 167.228104,76.869156 
	C167.409851,76.494667 167.591599,76.120186 167.773331,75.745697 
	C166.197006,74.813538 164.620667,73.881371 162.479034,72.507172 
M95.870178,52.256229 
	C99.913696,52.502758 103.957207,52.749287 108.467232,53.353718 
	C109.025253,53.313343 109.583275,53.272972 110.965256,53.510101 
	C124.208527,56.075432 137.451797,58.640762 150.695068,61.206093 
	C150.833145,60.832417 150.971237,60.458744 151.109329,60.085072 
	C141.684204,55.906490 132.259079,51.727909 122.472038,47.388870 
	C123.585533,45.217339 124.565849,43.133411 125.695175,41.133633 
	C130.037323,33.444611 134.513168,25.829868 138.770645,18.094685 
	C141.884766,12.436813 140.475784,9.876809 134.473022,9.865067 
	C122.641945,9.841923 110.810799,9.857438 98.979675,9.857584 
	C81.816216,9.857794 64.652763,9.861428 47.489304,9.855947 
	C44.946644,9.855136 42.387329,9.562681 42.159561,13.335053 
	C41.567478,23.141481 40.860836,32.941486 40.125023,42.738426 
	C39.923717,45.418705 41.265537,46.830612 43.576370,46.028717 
	C45.195526,45.466854 47.067051,43.757713 47.569527,42.164661 
	C50.292488,33.531849 53.988411,25.617683 62.066181,20.738400 
	C74.345009,13.321515 87.750114,16.784990 102.134415,15.930769 
	C95.091591,28.540094 88.821907,39.765205 82.198265,51.624039 
	C84.452530,51.798817 85.726624,51.897598 87.639832,52.387226 
	C90.106171,52.319016 92.572517,52.250805 95.870178,52.256229 
z"/>
<path fill="#196795" opacity="1.000000" stroke="none" 
	d="
M102.157104,82.237236 
	C92.596848,99.392982 83.032822,116.546631 73.483414,133.708405 
	C72.710434,135.097580 72.037735,136.542542 70.556084,139.465561 
	C83.015862,138.689026 94.307114,138.662979 105.378891,137.091049 
	C115.064064,135.715988 121.673721,128.916931 126.012978,120.430946 
	C128.876587,114.830803 130.886658,108.780708 133.082047,102.859100 
	C133.944901,100.531746 134.698624,97.978455 137.658630,99.125694 
	C138.832245,99.580566 139.890335,102.051224 139.872513,103.591034 
	C139.727966,116.078545 139.227936,128.561646 139.043106,141.049164 
	C138.994308,144.346405 137.732941,145.330200 134.567932,145.322739 
	C102.254158,145.246536 69.940002,145.232986 37.626400,145.339035 
	C34.034618,145.350815 32.630592,143.980484 33.240875,140.641342 
	C33.620792,138.562622 34.154163,136.398758 35.155266,134.566254 
	C39.625912,126.382751 44.194824,118.249153 48.910847,110.204590 
	C53.416534,102.518791 60.260525,97.217606 67.741516,92.701134 
	C72.555626,89.794739 77.497742,87.100365 82.961258,84.184616 
	C84.061981,83.920250 84.583923,83.782211 85.441185,83.616913 
	C86.199356,83.438950 86.622215,83.288239 87.430199,83.139549 
	C90.232040,82.491829 92.648758,81.842087 95.344360,81.394424 
	C97.801201,81.810081 99.979149,82.023659 102.157104,82.237236 
z"/>
<path fill="#196794" opacity="1.000000" stroke="none" 
	d="
M108.000725,52.995811 
	C103.957207,52.749287 99.913696,52.502758 95.170349,51.949711 
	C91.980583,51.760921 89.490646,51.878651 87.000710,51.996380 
	C85.726624,51.897598 84.452530,51.798817 82.198265,51.624039 
	C88.821907,39.765205 95.091591,28.540094 102.134415,15.930769 
	C87.750114,16.784990 74.345009,13.321515 62.066181,20.738400 
	C53.988411,25.617683 50.292488,33.531849 47.569527,42.164661 
	C47.067051,43.757713 45.195526,45.466854 43.576370,46.028717 
	C41.265537,46.830612 39.923717,45.418705 40.125023,42.738426 
	C40.860836,32.941486 41.567478,23.141481 42.159561,13.335053 
	C42.387329,9.562681 44.946644,9.855136 47.489304,9.855947 
	C64.652763,9.861428 81.816216,9.857794 98.979675,9.857584 
	C110.810799,9.857438 122.641945,9.841923 134.473022,9.865067 
	C140.475784,9.876809 141.884766,12.436813 138.770645,18.094685 
	C134.513168,25.829868 130.037323,33.444611 125.695175,41.133633 
	C124.565849,43.133411 123.585533,45.217339 122.472038,47.388870 
	C132.259079,51.727909 141.684204,55.906490 151.109329,60.085072 
	C150.971237,60.458744 150.833145,60.832417 150.695068,61.206093 
	C137.451797,58.640762 124.208527,56.075432 110.429573,53.187477 
	C109.262833,52.908504 108.631783,52.952160 108.000725,52.995811 
z"/>
<path fill="#B1D4E8" opacity="1.000000" stroke="none" 
	d="
M124.013527,67.849274 
	C112.969589,67.843346 101.925652,67.837418 90.177612,67.645966 
	C88.311699,67.678864 87.149895,67.897285 85.988091,68.115707 
	C84.239746,68.369850 82.491402,68.623985 80.190353,68.720398 
	C79.088646,68.738747 78.539650,68.914818 77.990654,69.090881 
	C77.058578,69.277901 76.126495,69.464912 74.578369,69.527756 
	C73.232811,69.630234 72.503311,69.856888 71.773811,70.083542 
	C69.612778,70.558975 67.451752,71.034409 64.612976,71.439911 
	C63.211765,71.643936 62.488293,71.917885 61.764824,72.191833 
	C53.306160,75.611313 44.730110,78.775970 36.452785,82.589088 
	C33.572800,83.915810 31.073376,86.558144 29.026890,89.103516 
	C24.671797,94.520302 25.338467,98.872643 31.090475,107.131592 
	C23.016506,106.664131 9.558997,98.718475 5.510296,92.028397 
	C2.557540,87.149261 2.869742,81.504669 6.582745,76.614067 
	C11.202490,70.529137 17.714287,67.178520 24.725359,64.773521 
	C47.961979,56.802681 71.987061,55.300632 96.270630,56.578686 
	C115.135910,57.571568 133.766342,60.113956 151.466660,67.213417 
	C155.238434,68.726234 158.813400,70.729729 162.557434,73.041733 
	C162.277573,73.923798 161.919327,74.271294 161.561096,74.618797 
	C157.616699,73.535629 153.672318,72.452461 149.242432,71.040344 
	C148.176712,70.746719 147.596481,70.782036 147.016266,70.817345 
	C146.318924,70.690369 145.621582,70.563400 144.481308,70.113998 
	C143.362991,69.815460 142.687607,69.839348 142.012222,69.863235 
	C140.578049,69.643143 139.143875,69.423042 137.216125,68.921379 
	C136.154022,68.695274 135.585495,68.750732 135.016953,68.806190 
	C132.937454,68.603828 130.857941,68.401466 128.163223,67.923843 
	C126.369843,67.715492 125.191689,67.782379 124.013527,67.849274 
z"/>
<path fill="#186490" opacity="1.000000" stroke="none" 
	d="
M102.366837,81.994492 
	C99.979149,82.023659 97.801201,81.810081 95.157707,81.041611 
	C92.086853,80.767189 89.481544,81.047668 86.528000,81.288025 
	C85.727768,81.362679 85.275757,81.477448 84.584152,81.551804 
	C83.909035,81.683136 83.473534,81.854881 83.038025,82.026627 
	C67.485184,86.361259 53.037571,92.620850 42.827137,105.881622 
	C41.059837,108.176895 39.737221,108.186340 37.505623,106.749008 
	C28.741943,101.104462 28.297825,93.143257 36.889240,87.212921 
	C47.812317,79.673141 60.459881,76.421387 73.288498,74.302528 
	C97.253197,70.344376 121.273270,70.265739 145.635529,75.398544 
	C146.083115,76.275681 146.111038,76.595581 146.138977,76.915482 
	C130.992783,75.033028 115.926926,75.736809 100.817291,78.569786 
	C101.348351,79.530312 101.962463,80.641029 102.366837,81.994492 
z"/>
<path fill="#10415D" opacity="1.000000" stroke="none" 
	d="
M146.404388,77.089638 
	C146.111038,76.595581 146.083115,76.275681 146.029541,75.474777 
	C149.280594,75.602165 152.557266,76.210548 155.833939,76.818932 
	C155.693192,77.506493 155.552460,78.194054 155.411713,78.881615 
	C152.497742,78.342339 149.583755,77.803070 146.404388,77.089638 
z"/>
<path fill="#124B6C" opacity="1.000000" stroke="none" 
	d="
M87.320267,52.191803 
	C89.490646,51.878651 91.980583,51.760921 94.754684,51.912895 
	C92.572517,52.250805 90.106171,52.319016 87.320267,52.191803 
z"/>
<path fill="#738A97" opacity="1.000000" stroke="none" 
	d="
M161.785095,74.860580 
	C161.919327,74.271294 162.277573,73.923798 162.840088,73.262756 
	C164.620667,73.881371 166.197006,74.813538 167.773331,75.745697 
	C167.591599,76.120186 167.409851,76.494667 167.228104,76.869156 
	C165.488434,76.280228 163.748779,75.691299 161.785095,74.860580 
z"/>
<path fill="#738A97" opacity="1.000000" stroke="none" 
	d="
M86.248947,68.259354 
	C87.149895,67.897285 88.311699,67.678864 89.725250,67.642410 
	C88.821259,68.017250 87.665527,68.210121 86.248947,68.259354 
z"/>
<path fill="#738A97" opacity="1.000000" stroke="none" 
	d="
M124.263901,68.011963 
	C125.191689,67.782379 126.369843,67.715492 127.778854,67.857468 
	C126.844566,68.102432 125.679420,68.138535 124.263901,68.011963 
z"/>
<path fill="#738A97" opacity="1.000000" stroke="none" 
	d="
M147.161407,70.992905 
	C147.596481,70.782036 148.176712,70.746719 148.886932,70.916779 
	C148.446808,71.137589 147.876678,71.153030 147.161407,70.992905 
z"/>
<path fill="#738A97" opacity="1.000000" stroke="none" 
	d="
M62.042229,72.290329 
	C62.488293,71.917885 63.211765,71.643936 64.207138,71.513115 
	C63.759232,71.900436 63.039433,72.144630 62.042229,72.290329 
z"/>
<path fill="#738A97" opacity="1.000000" stroke="none" 
	d="
M142.254547,70.046013 
	C142.687607,69.839348 143.362991,69.815460 144.147446,69.991592 
	C143.669968,70.204002 143.083420,70.216393 142.254547,70.046013 
z"/>
<path fill="#738A97" opacity="1.000000" stroke="none" 
	d="
M72.040428,70.203331 
	C72.503311,69.856888 73.232811,69.630234 74.222939,69.556351 
	C73.758057,69.913780 73.032555,70.118446 72.040428,70.203331 
z"/>
<path fill="#738A97" opacity="1.000000" stroke="none" 
	d="
M135.164734,68.975113 
	C135.585495,68.750732 136.154022,68.695274 136.863190,68.833488 
	C136.440048,69.066116 135.876266,69.105072 135.164734,68.975113 
z"/>
<path fill="#738A97" opacity="1.000000" stroke="none" 
	d="
M78.166519,69.230927 
	C78.539650,68.914818 79.088646,68.738747 79.811409,68.724754 
	C79.437576,69.048210 78.889984,69.209595 78.166519,69.230927 
z"/>
<path fill="#04131B" opacity="1.000000" stroke="none" 
	d="
M83.016113,82.508110 
	C83.473534,81.854881 83.909035,81.683136 84.659393,82.065651 
	C85.018120,82.961334 85.061996,83.302757 85.105873,83.644180 
	C84.583923,83.782211 84.061981,83.920250 83.264267,84.005905 
	C82.990410,83.632210 82.992310,83.310898 83.016113,82.508110 
z"/>
<path fill="#124B6C" opacity="1.000000" stroke="none" 
	d="
M108.233978,53.174767 
	C108.631783,52.952160 109.262833,52.908504 110.017593,53.048725 
	C109.583275,53.272972 109.025253,53.313343 108.233978,53.174767 
z"/>
<path fill="#04131B" opacity="1.000000" stroke="none" 
	d="
M86.876228,81.328156 
	C89.481544,81.047668 92.086853,80.767189 94.878822,80.839523 
	C92.648758,81.842087 90.232040,82.491829 87.391235,82.686661 
	C86.936836,81.930565 86.906532,81.629364 86.876228,81.328156 
z"/>
<path fill="#020304" opacity="1.000000" stroke="none" 
	d="
M86.528000,81.288025 
	C86.906532,81.629364 86.936836,81.930565 87.006104,82.684647 
	C86.622215,83.288239 86.199356,83.438950 85.441185,83.616913 
	C85.061996,83.302757 85.018120,82.961334 84.899002,82.106064 
	C85.275757,81.477448 85.727768,81.362679 86.528000,81.288025 
z"/>
</svg>